<?xml version="1.0" ?><!-- Uploaded to: SVG Repo, www.svgrepo.com, Generator: SVG Repo Mixer Tools -->
<svg fill="#000000" width="800px" height="800px" viewBox="0 0 512 512" data-name="Layer 1" id="Layer_1" xmlns="http://www.w3.org/2000/svg"><path d="M398.78,260.79V240a5.33,5.33,0,0,0-5.33-5.33H373.06v-50a39.9,39.9,0,0,0-79.79,0v7.68a56.18,56.18,0,0,0-6-4.88V140.82a31.26,31.26,0,1,0-62.51,0v46.57a58.48,58.48,0,0,0-6,4.88V184.6a39.9,39.9,0,0,0-79.79,0v50H118.56a5.33,5.33,0,0,0-5.33,5.33v20.82a24.45,24.45,0,0,0-19.1,23.8,5.33,5.33,0,0,0,5.33,5.33h38.19a5.33,5.33,0,0,0,5.33-5.33,24.45,24.45,0,0,0-19.09-23.8V245.3h75.64V311H175.62a5.33,5.33,0,0,0-5.33,5.33v50.57a30.77,30.77,0,0,0-25.45,30.24,5.33,5.33,0,0,0,5.33,5.33h50.9a5.33,5.33,0,0,0,5.33-5.33A30.76,30.76,0,0,0,181,366.87V321.63h69.72v45.24a30.77,30.77,0,0,0-25.45,30.24,5.33,5.33,0,0,0,5.33,5.33h50.91a5.33,5.33,0,0,0,5.33-5.33,30.78,30.78,0,0,0-25.46-30.24V321.63h69.73v45.24a30.77,30.77,0,0,0-25.45,30.24,5.33,5.33,0,0,0,5.33,5.33h50.9a5.33,5.33,0,0,0,5.33-5.33,30.77,30.77,0,0,0-25.45-30.24V316.3a5.33,5.33,0,0,0-5.33-5.33H312.47V245.3h75.65v15.49A24.45,24.45,0,0,0,369,284.59a5.33,5.33,0,0,0,5.33,5.33h38.18a5.33,5.33,0,0,0,5.33-5.33A24.45,24.45,0,0,0,398.78,260.79ZM131.24,279.25H105.87a13.77,13.77,0,0,1,25.37,0ZM195,391.78h-38.8a20.12,20.12,0,0,1,38.8,0Zm80.39,0H236.6a20.13,20.13,0,0,1,38.81,0Zm80.38,0H317a20.12,20.12,0,0,1,38.8,0Zm-120.38-251a20.6,20.6,0,1,1,41.19,0v41.1a54.77,54.77,0,0,0-41.19,0ZM256,188.56a45.86,45.86,0,0,1,45.81,45.81V311H274.6V243.63l11.47-14.14a5.34,5.34,0,0,0-8.29-6.72l-12.66,15.61a5.32,5.32,0,0,0-1.19,3.36V311H251V241.74a5.32,5.32,0,0,0-1.56-3.77l-15.61-15.61a5.33,5.33,0,1,0-7.54,7.54l14.05,14v67H210.19v-76.6A45.86,45.86,0,0,1,256,188.56ZM149.61,234.64v-50a29.24,29.24,0,0,1,58.47,0v20.26a55.94,55.94,0,0,0-8.55,29.51v.27Zm154.32-29.76V184.6a29.24,29.24,0,0,1,58.47,0v50H312.47v-.27A55.89,55.89,0,0,0,303.93,204.88Zm76.84,74.37a13.76,13.76,0,0,1,25.36,0Z"/></svg>